<?xml version="1.0" standalone="no"?><!DOCTYPE svg PUBLIC "-//W3C//DTD SVG 1.1//EN" "http://www.w3.org/Graphics/SVG/1.1/DTD/svg11.dtd"><svg t="1650198011034" class="icon" viewBox="0 0 1024 1024" version="1.1" xmlns="http://www.w3.org/2000/svg" p-id="4864" xmlns:xlink="http://www.w3.org/1999/xlink" width="200" height="200"><defs><style type="text/css">@font-face { font-family: feedback-iconfont; src: url("//at.alicdn.com/t/font_1031158_u69w8yhxdu.woff2?t=1630033759944") format("woff2"), url("//at.alicdn.com/t/font_1031158_u69w8yhxdu.woff?t=1630033759944") format("woff"), url("//at.alicdn.com/t/font_1031158_u69w8yhxdu.ttf?t=1630033759944") format("truetype"); }
</style></defs><path d="M600.721723 566.307446H349.113108c-27.191138 0-49.230769-22.043569-49.23077-49.230769s22.039631-49.230769 49.23077-49.230769h251.608615c27.1872 0 49.230769 22.043569 49.230769 49.230769s-22.039631 49.230769-49.230769 49.230769zM675.426462 282.805169a49.045662 49.045662 0 0 1-33.591139-13.252923c-19.869538-18.558031-20.932923-49.711262-2.374892-69.5808 57.930831-62.026831 59.321108-116.125538 59.309292-116.645415-0.641969-27.183262 20.869908-49.738831 48.053169-50.3808 27.076923-0.720738 49.734892 20.873846 50.376862 48.053169 0.224492 9.416862-0.291446 94.645169-85.783631 186.178954a49.081108 49.081108 0 0 1-35.989661 15.627815zM334.347815 990.523077c-27.191138 0-49.230769-22.043569-49.230769-49.230769 0-92.341169 57.993846-146.026338 114.723446-186.360123 22.157785-15.757785 52.893538-10.562954 68.651323 11.59483s10.562954 52.897477-11.59483 68.651323c-61.050092 43.405785-73.314462 72.782769-73.314462 106.11397-0.003938 27.1872-22.047508 49.230769-49.234708 49.230769z" fill="#B0A7F7" p-id="4865"></path><path d="M661.200738 727.103015c80.840862-60.037908 151.378708-144.513969 146.782524-234.562953-4.052677-79.470277-62.109538-142.832246-172.544-188.317539-121.450338-50.0224-174.072123-105.141169-196.832493-142.576246-22.728862-37.383877-20.137354-63.488-20.015261-64.578954-0.1024 0.917662-0.212677 1.390277-0.212677 1.390277l-97.012185-16.829046c-1.559631 8.975754-7.597292 56.926523 26.501908 119.693784 19.385108 35.6864 47.623877 68.730092 84.440615 98.973539-118.784 77.178092-137.042708 166.368492-135.971446 217.257354 2.083446 99.107446 75.941415 187.608615 197.572923 236.729107 183.744985 74.220308 209.073231 133.742277 209.073231 187.006031 0 27.1872 22.043569 49.230769 49.230769 49.230769s49.230769-22.043569 49.230769-49.230769c0-86.445292-43.189169-154.127754-140.244677-214.185354z m-266.421169-211.621415c-1.1776-56.020677 45.757046-111.604185 129.630523-154.663385 22.709169 12.114708 47.214277 23.607138 73.531077 34.445785 49.624615 20.436677 109.284431 54.776123 111.706585 102.293662 2.938092 57.576369-71.0656 131.414646-148.543016 178.160246a1222.848985 1222.848985 0 0 0-30.314338-12.733046c-82.688-33.394215-134.801723-89.915077-136.010831-147.503262z" fill="#594BC8" p-id="4866"></path></svg>
